<svg width="24" height="24" viewBox="0 0 24 24" fill="none" xmlns="http://www.w3.org/2000/svg">
  <path fill-rule="evenodd" clip-rule="evenodd" d="M2.32627 2.67049C2.45212 2.41316 2.71356 2.25 3.00001 2.25H21C21.2865 2.25 21.5479 2.41316 21.6737 2.67049C21.7996 2.92781 21.7679 3.23435 21.592 3.46046L14.75 12.2573V21C14.75 21.2599 14.6154 21.5013 14.3943 21.638C14.1732 21.7746 13.8971 21.7871 13.6646 21.6708L9.6646 19.6708C9.41051 19.5438 9.25001 19.2841 9.25001 19V12.2573L2.40799 3.46046C2.23213 3.23435 2.20042 2.92781 2.32627 2.67049ZM4.53349 3.75L10.592 11.5395C10.6944 11.6712 10.75 11.8332 10.75 12V18.5365L13.25 19.7865V12C13.25 11.8332 13.3056 11.6712 13.408 11.5395L19.4665 3.75H4.53349Z" fill="#5780EA"/>
</svg>
